# xmcd
#
# Track frame offsets:
#	150
#	20939
#	42651
#	61815
#	75732
#	95628
#	121437
#	137787
#	159223
#	178922
#	192620
#	208628
#
# Disc length: 3033 seconds
#
# Revision: 0
# Processed by: cddbd v1.5.2PL0 Copyright (c) Steve Scherf et al.
# Submitted via: EasyCDDAExtractor 10.2.0.1
#
DISCID=b20bd70c
DTITLE=Mark Knopfler and Emmylou Harris - All The Roadrunning
DYEAR=2006
DGENRE=Country
TTITLE0=Beachcombing
TTITLE1=I Dug Up A Diamond
TTITLE2=This Is Us
TTITLE3=Red Staggerwing
TTITLE4=Rollin' On
TTITLE5=Love And Happiness For You
TTITLE6=Right Now
TTITLE7=Donkey Town
TTITLE8=Belle Star
TTITLE9=Beyond My Wildest Dreams
TTITLE10=All The Roadrunning
TTITLE11=If This Is Goodbye
EXTD=
EXTT0=
EXTT1=
EXTT2=
EXTT3=
EXTT4=
EXTT5=
EXTT6=
EXTT7=
EXTT8=
EXTT9=
EXTT10=
EXTT11=
PLAYORDER=
